# xmcd
#
# Track frame offsets:
#	150
#	23282
#	35809
#	48747
#	61727
#	72538
#	84355
#	95853
#	108529
#	121538
#	136493
#	148629
#	160490
#	171660
#	182320
#
# Disc length: 2589 seconds
#
# Revision: 0
# Processed by: cddbd v1.5.2PL0 Copyright (c) Steve Scherf et al.
# Submitted via: audiograbber 1.83.01
#
DISCID=d30a1b0f
DTITLE=Various Artist - The Soul Story: Volume 1 - Disc 2
DYEAR=2006
DGENRE=Soul
TTITLE0=Ray Charles - What'd I Say
TTITLE1=Aretha Franklin - (You Make Me Feel Like A) Natural Woman
TTITLE2=Ike and Tina Turner - A Fool In Love 
TTITLE3=Ben E. King - Spanish Harlem
TTITLE4=Otis Redding - That's How Strong My Love Is
TTITLE5=Darrell Banks - Open the Door to Your Heart
TTITLE6=Wilson Pickett - I Found A Love
TTITLE7=Jerry Butler - He Will Break Your Heart
TTITLE8=Dionne Warwick - Walk On By
TTITLE9=The Impressions - Choice Of Colors
TTITLE10=The Capitols - Cool Jerk
TTITLE11=Linda Jones - Hypnotized
TTITLE12=Deon Jackson - Love Makes The World Go 'Round
TTITLE13=Carla Thomas - Gee Whiz (Look At His Eyes)
TTITLE14=The Mar-Keys - Last Night
EXTD=
EXTT0=
EXTT1=
EXTT2=
EXTT3=
EXTT4=
EXTT5=
EXTT6=
EXTT7=
EXTT8=
EXTT9=
EXTT10=
EXTT11=
EXTT12=
EXTT13=
EXTT14=
PLAYORDER=
